<mxfile host="app.diagrams.net" modified="2022-02-22T17:34:01.830Z" agent="5.0 (Windows NT 10.0; Win64; x64) AppleWebKit/537.36 (KHTML, like Gecko) Chrome/98.0.4758.102 Safari/537.36" etag="g5SjYZIK2LHD0R6RLXEV" version="16.6.2" type="github">
  <diagram id="IbFsVaH_VBfuQcYu_lxq" name="Page-1">
    <mxGraphModel dx="1673" dy="896" grid="1" gridSize="10" guides="1" tooltips="1" connect="1" arrows="1" fold="1" page="1" pageScale="1" pageWidth="827" pageHeight="1169" math="0" shadow="0">
      <root>
        <mxCell id="0" />
        <mxCell id="1" parent="0" />
        <mxCell id="7ZV2Q5uzjeYiiLcvQFBw-1" value="Company" style="rounded=0;whiteSpace=wrap;html=1;" parent="1" vertex="1">
          <mxGeometry x="110" y="180" width="120" height="60" as="geometry" />
        </mxCell>
        <mxCell id="7ZV2Q5uzjeYiiLcvQFBw-2" value="&lt;u&gt;ID&lt;/u&gt;" style="ellipse;whiteSpace=wrap;html=1;" parent="1" vertex="1">
          <mxGeometry x="70" y="140" width="80" height="30" as="geometry" />
        </mxCell>
        <mxCell id="7ZV2Q5uzjeYiiLcvQFBw-3" value="Name" style="ellipse;whiteSpace=wrap;html=1;" parent="1" vertex="1">
          <mxGeometry x="180" y="130" width="80" height="30" as="geometry" />
        </mxCell>
        <mxCell id="7ZV2Q5uzjeYiiLcvQFBw-4" value="" style="endArrow=none;html=1;rounded=0;entryX=0.4;entryY=1.033;entryDx=0;entryDy=0;entryPerimeter=0;exitX=0.633;exitY=-0.017;exitDx=0;exitDy=0;exitPerimeter=0;" parent="1" source="7ZV2Q5uzjeYiiLcvQFBw-1" target="7ZV2Q5uzjeYiiLcvQFBw-3" edge="1">
          <mxGeometry width="50" height="50" relative="1" as="geometry">
            <mxPoint x="160" y="200" as="sourcePoint" />
            <mxPoint x="210" y="150" as="targetPoint" />
            <Array as="points">
              <mxPoint x="180" y="180" />
            </Array>
          </mxGeometry>
        </mxCell>
        <mxCell id="7ZV2Q5uzjeYiiLcvQFBw-5" value="" style="endArrow=none;html=1;rounded=0;entryX=0.5;entryY=1;entryDx=0;entryDy=0;exitX=0.25;exitY=0;exitDx=0;exitDy=0;" parent="1" source="7ZV2Q5uzjeYiiLcvQFBw-1" target="7ZV2Q5uzjeYiiLcvQFBw-2" edge="1">
          <mxGeometry width="50" height="50" relative="1" as="geometry">
            <mxPoint x="40" y="230" as="sourcePoint" />
            <mxPoint x="90" y="180" as="targetPoint" />
          </mxGeometry>
        </mxCell>
        <mxCell id="7ZV2Q5uzjeYiiLcvQFBw-6" value="Branch" style="rounded=0;whiteSpace=wrap;html=1;strokeColor=default;" parent="1" vertex="1">
          <mxGeometry x="340" y="280" width="120" height="60" as="geometry" />
        </mxCell>
        <mxCell id="7ZV2Q5uzjeYiiLcvQFBw-7" value="&lt;u&gt;ID&lt;/u&gt;" style="ellipse;whiteSpace=wrap;html=1;" parent="1" vertex="1">
          <mxGeometry x="330" y="230" width="80" height="30" as="geometry" />
        </mxCell>
        <mxCell id="7ZV2Q5uzjeYiiLcvQFBw-8" value="" style="endArrow=none;html=1;rounded=0;entryX=0.425;entryY=1.067;entryDx=0;entryDy=0;entryPerimeter=0;exitX=0.5;exitY=0;exitDx=0;exitDy=0;" parent="1" source="7ZV2Q5uzjeYiiLcvQFBw-6" target="7ZV2Q5uzjeYiiLcvQFBw-7" edge="1">
          <mxGeometry width="50" height="50" relative="1" as="geometry">
            <mxPoint x="190" y="390" as="sourcePoint" />
            <mxPoint x="240" y="340" as="targetPoint" />
          </mxGeometry>
        </mxCell>
        <mxCell id="7ZV2Q5uzjeYiiLcvQFBw-9" value="" style="rhombus;whiteSpace=wrap;html=1;" parent="1" vertex="1">
          <mxGeometry x="180" y="290" width="50" height="30" as="geometry" />
        </mxCell>
        <mxCell id="7ZV2Q5uzjeYiiLcvQFBw-10" value="" style="endArrow=none;html=1;rounded=0;entryX=0.75;entryY=1;entryDx=0;entryDy=0;exitX=0.5;exitY=0;exitDx=0;exitDy=0;" parent="1" source="7ZV2Q5uzjeYiiLcvQFBw-9" target="7ZV2Q5uzjeYiiLcvQFBw-1" edge="1">
          <mxGeometry width="50" height="50" relative="1" as="geometry">
            <mxPoint x="110" y="330" as="sourcePoint" />
            <mxPoint x="160" y="280" as="targetPoint" />
          </mxGeometry>
        </mxCell>
        <mxCell id="7ZV2Q5uzjeYiiLcvQFBw-11" value="" style="endArrow=none;html=1;rounded=0;exitX=1;exitY=0.5;exitDx=0;exitDy=0;entryX=0;entryY=0.5;entryDx=0;entryDy=0;" parent="1" source="7ZV2Q5uzjeYiiLcvQFBw-9" target="7ZV2Q5uzjeYiiLcvQFBw-6" edge="1">
          <mxGeometry width="50" height="50" relative="1" as="geometry">
            <mxPoint x="300" y="450" as="sourcePoint" />
            <mxPoint x="350" y="400" as="targetPoint" />
          </mxGeometry>
        </mxCell>
        <mxCell id="7ZV2Q5uzjeYiiLcvQFBw-12" value="Name" style="ellipse;whiteSpace=wrap;html=1;" parent="1" vertex="1">
          <mxGeometry x="330" y="360" width="70" height="40" as="geometry" />
        </mxCell>
        <mxCell id="7ZV2Q5uzjeYiiLcvQFBw-13" value="" style="endArrow=none;html=1;rounded=0;entryX=0.317;entryY=1.017;entryDx=0;entryDy=0;entryPerimeter=0;exitX=0.5;exitY=0;exitDx=0;exitDy=0;" parent="1" source="7ZV2Q5uzjeYiiLcvQFBw-12" target="7ZV2Q5uzjeYiiLcvQFBw-6" edge="1">
          <mxGeometry width="50" height="50" relative="1" as="geometry">
            <mxPoint x="240" y="470" as="sourcePoint" />
            <mxPoint x="290" y="420" as="targetPoint" />
          </mxGeometry>
        </mxCell>
        <mxCell id="7ZV2Q5uzjeYiiLcvQFBw-14" value="Country" style="rounded=0;whiteSpace=wrap;html=1;" parent="1" vertex="1">
          <mxGeometry x="450" y="140" width="120" height="50" as="geometry" />
        </mxCell>
        <mxCell id="7ZV2Q5uzjeYiiLcvQFBw-15" value="&lt;u&gt;ID&lt;/u&gt;" style="ellipse;whiteSpace=wrap;html=1;" parent="1" vertex="1">
          <mxGeometry x="430" y="80" width="90" height="30" as="geometry" />
        </mxCell>
        <mxCell id="7ZV2Q5uzjeYiiLcvQFBw-16" value="" style="endArrow=none;html=1;rounded=0;entryX=0.5;entryY=1;entryDx=0;entryDy=0;exitX=0.25;exitY=0;exitDx=0;exitDy=0;" parent="1" source="7ZV2Q5uzjeYiiLcvQFBw-14" target="7ZV2Q5uzjeYiiLcvQFBw-15" edge="1">
          <mxGeometry width="50" height="50" relative="1" as="geometry">
            <mxPoint x="580" y="310" as="sourcePoint" />
            <mxPoint x="630" y="260" as="targetPoint" />
          </mxGeometry>
        </mxCell>
        <mxCell id="7ZV2Q5uzjeYiiLcvQFBw-17" value="Name" style="ellipse;whiteSpace=wrap;html=1;" parent="1" vertex="1">
          <mxGeometry x="580" y="80" width="90" height="30" as="geometry" />
        </mxCell>
        <mxCell id="7ZV2Q5uzjeYiiLcvQFBw-18" value="" style="endArrow=none;html=1;rounded=0;exitX=0.75;exitY=0;exitDx=0;exitDy=0;entryX=0.5;entryY=1;entryDx=0;entryDy=0;" parent="1" source="7ZV2Q5uzjeYiiLcvQFBw-14" target="7ZV2Q5uzjeYiiLcvQFBw-17" edge="1">
          <mxGeometry width="50" height="50" relative="1" as="geometry">
            <mxPoint x="650" y="190" as="sourcePoint" />
            <mxPoint x="700" y="140" as="targetPoint" />
          </mxGeometry>
        </mxCell>
        <mxCell id="7ZV2Q5uzjeYiiLcvQFBw-19" value="" style="rhombus;whiteSpace=wrap;html=1;" parent="1" vertex="1">
          <mxGeometry x="470" y="220" width="40" height="30" as="geometry" />
        </mxCell>
        <mxCell id="7ZV2Q5uzjeYiiLcvQFBw-20" value="" style="endArrow=none;html=1;rounded=0;exitX=0.5;exitY=0;exitDx=0;exitDy=0;entryX=0.5;entryY=1;entryDx=0;entryDy=0;" parent="1" source="7ZV2Q5uzjeYiiLcvQFBw-19" target="7ZV2Q5uzjeYiiLcvQFBw-14" edge="1">
          <mxGeometry width="50" height="50" relative="1" as="geometry">
            <mxPoint x="620" y="280" as="sourcePoint" />
            <mxPoint x="670" y="230" as="targetPoint" />
          </mxGeometry>
        </mxCell>
        <mxCell id="7ZV2Q5uzjeYiiLcvQFBw-21" value="" style="endArrow=none;html=1;rounded=0;exitX=0.75;exitY=0;exitDx=0;exitDy=0;entryX=0.5;entryY=1;entryDx=0;entryDy=0;" parent="1" source="7ZV2Q5uzjeYiiLcvQFBw-6" target="7ZV2Q5uzjeYiiLcvQFBw-19" edge="1">
          <mxGeometry width="50" height="50" relative="1" as="geometry">
            <mxPoint x="550" y="310" as="sourcePoint" />
            <mxPoint x="600" y="260" as="targetPoint" />
          </mxGeometry>
        </mxCell>
        <mxCell id="7ZV2Q5uzjeYiiLcvQFBw-22" value="Department" style="rounded=0;whiteSpace=wrap;html=1;" parent="1" vertex="1">
          <mxGeometry x="280" y="554.5" width="120" height="60" as="geometry" />
        </mxCell>
        <mxCell id="7ZV2Q5uzjeYiiLcvQFBw-23" value="&lt;u&gt;ID&lt;/u&gt;" style="ellipse;whiteSpace=wrap;html=1;" parent="1" vertex="1">
          <mxGeometry x="290" y="500" width="80" height="30" as="geometry" />
        </mxCell>
        <mxCell id="7ZV2Q5uzjeYiiLcvQFBw-24" value="" style="endArrow=none;html=1;rounded=0;entryX=0.425;entryY=1.067;entryDx=0;entryDy=0;entryPerimeter=0;exitX=0.25;exitY=0;exitDx=0;exitDy=0;" parent="1" source="7ZV2Q5uzjeYiiLcvQFBw-22" target="7ZV2Q5uzjeYiiLcvQFBw-23" edge="1">
          <mxGeometry width="50" height="50" relative="1" as="geometry">
            <mxPoint x="360" y="550" as="sourcePoint" />
            <mxPoint x="200" y="610" as="targetPoint" />
          </mxGeometry>
        </mxCell>
        <mxCell id="7ZV2Q5uzjeYiiLcvQFBw-25" value="Name" style="ellipse;whiteSpace=wrap;html=1;" parent="1" vertex="1">
          <mxGeometry x="190" y="590" width="70" height="40" as="geometry" />
        </mxCell>
        <mxCell id="7ZV2Q5uzjeYiiLcvQFBw-26" value="" style="endArrow=none;html=1;rounded=0;entryX=0;entryY=0.5;entryDx=0;entryDy=0;exitX=0.5;exitY=0;exitDx=0;exitDy=0;" parent="1" source="7ZV2Q5uzjeYiiLcvQFBw-25" target="7ZV2Q5uzjeYiiLcvQFBw-22" edge="1">
          <mxGeometry width="50" height="50" relative="1" as="geometry">
            <mxPoint x="200" y="740" as="sourcePoint" />
            <mxPoint x="338.03999999999996" y="611.02" as="targetPoint" />
          </mxGeometry>
        </mxCell>
        <mxCell id="7ZV2Q5uzjeYiiLcvQFBw-28" value="BranchDepartment" style="rounded=1;whiteSpace=wrap;html=1;" parent="1" vertex="1">
          <mxGeometry x="430" y="420" width="120" height="60" as="geometry" />
        </mxCell>
        <mxCell id="7ZV2Q5uzjeYiiLcvQFBw-29" value="" style="rhombus;whiteSpace=wrap;html=1;" parent="1" vertex="1">
          <mxGeometry x="475" y="360" width="30" height="30" as="geometry" />
        </mxCell>
        <mxCell id="7ZV2Q5uzjeYiiLcvQFBw-30" value="" style="endArrow=none;html=1;rounded=0;entryX=0.75;entryY=1;entryDx=0;entryDy=0;exitX=0.5;exitY=0;exitDx=0;exitDy=0;" parent="1" source="7ZV2Q5uzjeYiiLcvQFBw-29" target="7ZV2Q5uzjeYiiLcvQFBw-6" edge="1">
          <mxGeometry width="50" height="50" relative="1" as="geometry">
            <mxPoint x="420" y="420" as="sourcePoint" />
            <mxPoint x="470" y="370" as="targetPoint" />
          </mxGeometry>
        </mxCell>
        <mxCell id="7ZV2Q5uzjeYiiLcvQFBw-31" value="" style="endArrow=none;html=1;rounded=0;exitX=0.5;exitY=0;exitDx=0;exitDy=0;entryX=0.5;entryY=1;entryDx=0;entryDy=0;" parent="1" source="7ZV2Q5uzjeYiiLcvQFBw-28" target="7ZV2Q5uzjeYiiLcvQFBw-29" edge="1">
          <mxGeometry width="50" height="50" relative="1" as="geometry">
            <mxPoint x="580" y="430" as="sourcePoint" />
            <mxPoint x="630" y="380" as="targetPoint" />
          </mxGeometry>
        </mxCell>
        <mxCell id="7ZV2Q5uzjeYiiLcvQFBw-33" value="" style="rhombus;whiteSpace=wrap;html=1;strokeColor=default;" parent="1" vertex="1">
          <mxGeometry x="460" y="510" width="35" height="34.5" as="geometry" />
        </mxCell>
        <mxCell id="7ZV2Q5uzjeYiiLcvQFBw-34" value="" style="endArrow=none;html=1;rounded=0;exitX=1;exitY=0.5;exitDx=0;exitDy=0;entryX=0.5;entryY=1;entryDx=0;entryDy=0;" parent="1" source="7ZV2Q5uzjeYiiLcvQFBw-22" target="7ZV2Q5uzjeYiiLcvQFBw-33" edge="1">
          <mxGeometry width="50" height="50" relative="1" as="geometry">
            <mxPoint x="410" y="630" as="sourcePoint" />
            <mxPoint x="460" y="580" as="targetPoint" />
          </mxGeometry>
        </mxCell>
        <mxCell id="7ZV2Q5uzjeYiiLcvQFBw-35" value="" style="endArrow=none;html=1;rounded=0;exitX=0.5;exitY=0;exitDx=0;exitDy=0;entryX=0.5;entryY=1;entryDx=0;entryDy=0;" parent="1" source="7ZV2Q5uzjeYiiLcvQFBw-33" target="7ZV2Q5uzjeYiiLcvQFBw-28" edge="1">
          <mxGeometry width="50" height="50" relative="1" as="geometry">
            <mxPoint x="600" y="550" as="sourcePoint" />
            <mxPoint x="650" y="500" as="targetPoint" />
          </mxGeometry>
        </mxCell>
        <mxCell id="7ZV2Q5uzjeYiiLcvQFBw-36" value="Worker" style="rounded=0;whiteSpace=wrap;html=1;strokeColor=default;" parent="1" vertex="1">
          <mxGeometry x="750" y="370" width="120" height="60" as="geometry" />
        </mxCell>
        <mxCell id="7ZV2Q5uzjeYiiLcvQFBw-37" value="Position" style="rounded=0;whiteSpace=wrap;html=1;strokeColor=default;" parent="1" vertex="1">
          <mxGeometry x="600" y="250" width="120" height="60" as="geometry" />
        </mxCell>
        <mxCell id="7ZV2Q5uzjeYiiLcvQFBw-38" value="Account" style="rounded=0;whiteSpace=wrap;html=1;strokeColor=default;" parent="1" vertex="1">
          <mxGeometry x="990" y="250" width="120" height="60" as="geometry" />
        </mxCell>
        <mxCell id="7ZV2Q5uzjeYiiLcvQFBw-39" value="&lt;u&gt;ID&lt;/u&gt;" style="ellipse;whiteSpace=wrap;html=1;" parent="1" vertex="1">
          <mxGeometry x="430" y="80" width="90" height="30" as="geometry" />
        </mxCell>
        <mxCell id="7ZV2Q5uzjeYiiLcvQFBw-40" value="" style="rhombus;whiteSpace=wrap;html=1;strokeColor=default;" parent="1" vertex="1">
          <mxGeometry x="650" y="340" width="50" height="50" as="geometry" />
        </mxCell>
        <mxCell id="7ZV2Q5uzjeYiiLcvQFBw-41" value="" style="rhombus;whiteSpace=wrap;html=1;strokeColor=default;" parent="1" vertex="1">
          <mxGeometry x="910" y="340" width="50" height="50" as="geometry" />
        </mxCell>
        <mxCell id="7ZV2Q5uzjeYiiLcvQFBw-42" value="" style="endArrow=none;html=1;rounded=0;entryX=0.5;entryY=1;entryDx=0;entryDy=0;exitX=0.5;exitY=0;exitDx=0;exitDy=0;" parent="1" source="7ZV2Q5uzjeYiiLcvQFBw-41" target="7ZV2Q5uzjeYiiLcvQFBw-38" edge="1">
          <mxGeometry width="50" height="50" relative="1" as="geometry">
            <mxPoint x="750" y="310" as="sourcePoint" />
            <mxPoint x="800" y="260" as="targetPoint" />
          </mxGeometry>
        </mxCell>
        <mxCell id="7ZV2Q5uzjeYiiLcvQFBw-43" value="" style="endArrow=none;html=1;rounded=0;entryX=0.5;entryY=1;entryDx=0;entryDy=0;exitX=1;exitY=0.5;exitDx=0;exitDy=0;" parent="1" source="7ZV2Q5uzjeYiiLcvQFBw-36" target="7ZV2Q5uzjeYiiLcvQFBw-41" edge="1">
          <mxGeometry width="50" height="50" relative="1" as="geometry">
            <mxPoint x="900" y="400" as="sourcePoint" />
            <mxPoint x="950" y="350" as="targetPoint" />
          </mxGeometry>
        </mxCell>
        <mxCell id="7ZV2Q5uzjeYiiLcvQFBw-44" value="" style="endArrow=none;html=1;rounded=0;exitX=0.5;exitY=0;exitDx=0;exitDy=0;entryX=0.572;entryY=0.994;entryDx=0;entryDy=0;entryPerimeter=0;" parent="1" source="7ZV2Q5uzjeYiiLcvQFBw-40" target="7ZV2Q5uzjeYiiLcvQFBw-37" edge="1">
          <mxGeometry width="50" height="50" relative="1" as="geometry">
            <mxPoint x="730" y="330" as="sourcePoint" />
            <mxPoint x="780" y="280" as="targetPoint" />
          </mxGeometry>
        </mxCell>
        <mxCell id="7ZV2Q5uzjeYiiLcvQFBw-45" value="" style="endArrow=none;html=1;rounded=0;entryX=0.5;entryY=1;entryDx=0;entryDy=0;exitX=0;exitY=0.5;exitDx=0;exitDy=0;" parent="1" source="7ZV2Q5uzjeYiiLcvQFBw-36" target="7ZV2Q5uzjeYiiLcvQFBw-40" edge="1">
          <mxGeometry width="50" height="50" relative="1" as="geometry">
            <mxPoint x="660" y="460" as="sourcePoint" />
            <mxPoint x="710" y="410" as="targetPoint" />
          </mxGeometry>
        </mxCell>
        <mxCell id="7ZV2Q5uzjeYiiLcvQFBw-46" value="" style="endArrow=none;html=1;rounded=0;exitX=1;exitY=0.5;exitDx=0;exitDy=0;entryX=0;entryY=0.5;entryDx=0;entryDy=0;" parent="1" source="7ZV2Q5uzjeYiiLcvQFBw-28" target="7ZV2Q5uzjeYiiLcvQFBw-47" edge="1">
          <mxGeometry width="50" height="50" relative="1" as="geometry">
            <mxPoint x="570" y="520" as="sourcePoint" />
            <mxPoint x="620" y="470" as="targetPoint" />
          </mxGeometry>
        </mxCell>
        <mxCell id="7ZV2Q5uzjeYiiLcvQFBw-47" value="" style="rhombus;whiteSpace=wrap;html=1;strokeColor=default;" parent="1" vertex="1">
          <mxGeometry x="630" y="450" width="40" height="40" as="geometry" />
        </mxCell>
        <mxCell id="7ZV2Q5uzjeYiiLcvQFBw-48" value="" style="endArrow=none;html=1;rounded=0;entryX=0.317;entryY=1.05;entryDx=0;entryDy=0;entryPerimeter=0;exitX=1;exitY=0.5;exitDx=0;exitDy=0;" parent="1" source="7ZV2Q5uzjeYiiLcvQFBw-47" target="7ZV2Q5uzjeYiiLcvQFBw-36" edge="1">
          <mxGeometry width="50" height="50" relative="1" as="geometry">
            <mxPoint x="730" y="520" as="sourcePoint" />
            <mxPoint x="780" y="470" as="targetPoint" />
          </mxGeometry>
        </mxCell>
        <mxCell id="7ZV2Q5uzjeYiiLcvQFBw-49" value="&lt;u&gt;PasportNumber&lt;/u&gt;" style="ellipse;whiteSpace=wrap;html=1;strokeColor=default;" parent="1" vertex="1">
          <mxGeometry x="760" y="310" width="100" height="35" as="geometry" />
        </mxCell>
        <mxCell id="7ZV2Q5uzjeYiiLcvQFBw-50" value="FIO" style="ellipse;whiteSpace=wrap;html=1;strokeColor=default;" parent="1" vertex="1">
          <mxGeometry x="930" y="460" width="100" height="40" as="geometry" />
        </mxCell>
        <mxCell id="7ZV2Q5uzjeYiiLcvQFBw-51" value="registration adress" style="ellipse;whiteSpace=wrap;html=1;strokeColor=default;" parent="1" vertex="1">
          <mxGeometry x="930" y="400" width="80" height="50" as="geometry" />
        </mxCell>
        <mxCell id="7ZV2Q5uzjeYiiLcvQFBw-52" value="" style="endArrow=none;html=1;rounded=0;exitX=0.5;exitY=0;exitDx=0;exitDy=0;entryX=0.5;entryY=1;entryDx=0;entryDy=0;" parent="1" source="7ZV2Q5uzjeYiiLcvQFBw-36" target="7ZV2Q5uzjeYiiLcvQFBw-49" edge="1">
          <mxGeometry width="50" height="50" relative="1" as="geometry">
            <mxPoint x="830" y="290" as="sourcePoint" />
            <mxPoint x="880" y="240" as="targetPoint" />
          </mxGeometry>
        </mxCell>
        <mxCell id="7ZV2Q5uzjeYiiLcvQFBw-53" value="" style="endArrow=none;html=1;rounded=0;entryX=1;entryY=1;entryDx=0;entryDy=0;exitX=0.5;exitY=0;exitDx=0;exitDy=0;" parent="1" source="7ZV2Q5uzjeYiiLcvQFBw-50" target="7ZV2Q5uzjeYiiLcvQFBw-36" edge="1">
          <mxGeometry width="50" height="50" relative="1" as="geometry">
            <mxPoint x="750" y="620" as="sourcePoint" />
            <mxPoint x="800" y="570" as="targetPoint" />
          </mxGeometry>
        </mxCell>
        <mxCell id="7ZV2Q5uzjeYiiLcvQFBw-54" value="" style="endArrow=none;html=1;rounded=0;entryX=1;entryY=1;entryDx=0;entryDy=0;exitX=0;exitY=0.5;exitDx=0;exitDy=0;" parent="1" source="7ZV2Q5uzjeYiiLcvQFBw-51" target="7ZV2Q5uzjeYiiLcvQFBw-36" edge="1">
          <mxGeometry width="50" height="50" relative="1" as="geometry">
            <mxPoint x="900" y="580" as="sourcePoint" />
            <mxPoint x="950" y="530" as="targetPoint" />
          </mxGeometry>
        </mxCell>
        <mxCell id="7ZV2Q5uzjeYiiLcvQFBw-55" value="&lt;u&gt;ID&lt;/u&gt;" style="ellipse;whiteSpace=wrap;html=1;strokeColor=default;" parent="1" vertex="1">
          <mxGeometry x="670" y="200" width="70" height="30" as="geometry" />
        </mxCell>
        <mxCell id="7ZV2Q5uzjeYiiLcvQFBw-56" value="" style="endArrow=none;html=1;rounded=0;exitX=0.75;exitY=0;exitDx=0;exitDy=0;entryX=0.5;entryY=1;entryDx=0;entryDy=0;" parent="1" source="7ZV2Q5uzjeYiiLcvQFBw-37" target="7ZV2Q5uzjeYiiLcvQFBw-55" edge="1">
          <mxGeometry width="50" height="50" relative="1" as="geometry">
            <mxPoint x="790" y="260" as="sourcePoint" />
            <mxPoint x="840" y="210" as="targetPoint" />
          </mxGeometry>
        </mxCell>
        <mxCell id="7ZV2Q5uzjeYiiLcvQFBw-58" value="Name" style="ellipse;whiteSpace=wrap;html=1;strokeColor=default;" parent="1" vertex="1">
          <mxGeometry x="750" y="215" width="80" height="40" as="geometry" />
        </mxCell>
        <mxCell id="7ZV2Q5uzjeYiiLcvQFBw-59" value="" style="endArrow=none;html=1;rounded=0;exitX=1;exitY=0.5;exitDx=0;exitDy=0;entryX=0.5;entryY=1;entryDx=0;entryDy=0;" parent="1" source="7ZV2Q5uzjeYiiLcvQFBw-37" target="7ZV2Q5uzjeYiiLcvQFBw-58" edge="1">
          <mxGeometry width="50" height="50" relative="1" as="geometry">
            <mxPoint x="730" y="300" as="sourcePoint" />
            <mxPoint x="780" y="250" as="targetPoint" />
          </mxGeometry>
        </mxCell>
        <mxCell id="7ZV2Q5uzjeYiiLcvQFBw-60" value="Login" style="ellipse;whiteSpace=wrap;html=1;strokeColor=default;" parent="1" vertex="1">
          <mxGeometry x="950" y="190" width="70" height="40" as="geometry" />
        </mxCell>
        <mxCell id="7ZV2Q5uzjeYiiLcvQFBw-61" value="" style="endArrow=none;html=1;rounded=0;exitX=0.25;exitY=0;exitDx=0;exitDy=0;entryX=0.737;entryY=1.04;entryDx=0;entryDy=0;entryPerimeter=0;" parent="1" source="7ZV2Q5uzjeYiiLcvQFBw-38" target="7ZV2Q5uzjeYiiLcvQFBw-60" edge="1">
          <mxGeometry width="50" height="50" relative="1" as="geometry">
            <mxPoint x="1040" y="260" as="sourcePoint" />
            <mxPoint x="1090" y="210" as="targetPoint" />
          </mxGeometry>
        </mxCell>
        <mxCell id="7ZV2Q5uzjeYiiLcvQFBw-62" value="Password" style="ellipse;whiteSpace=wrap;html=1;strokeColor=default;" parent="1" vertex="1">
          <mxGeometry x="1050" y="180" width="70" height="45" as="geometry" />
        </mxCell>
        <mxCell id="7ZV2Q5uzjeYiiLcvQFBw-63" value="" style="endArrow=none;html=1;rounded=0;exitX=0.75;exitY=0;exitDx=0;exitDy=0;entryX=0.5;entryY=1;entryDx=0;entryDy=0;" parent="1" source="7ZV2Q5uzjeYiiLcvQFBw-38" target="7ZV2Q5uzjeYiiLcvQFBw-62" edge="1">
          <mxGeometry width="50" height="50" relative="1" as="geometry">
            <mxPoint x="1120" y="270" as="sourcePoint" />
            <mxPoint x="1170" y="220" as="targetPoint" />
          </mxGeometry>
        </mxCell>
        <mxCell id="7ZV2Q5uzjeYiiLcvQFBw-64" value="&lt;u&gt;ID&lt;/u&gt;" style="ellipse;whiteSpace=wrap;html=1;strokeColor=default;" parent="1" vertex="1">
          <mxGeometry x="1070" y="325" width="80" height="45" as="geometry" />
        </mxCell>
        <mxCell id="7ZV2Q5uzjeYiiLcvQFBw-65" value="" style="endArrow=none;html=1;rounded=0;entryX=0.75;entryY=1;entryDx=0;entryDy=0;exitX=0.5;exitY=0;exitDx=0;exitDy=0;" parent="1" source="7ZV2Q5uzjeYiiLcvQFBw-64" target="7ZV2Q5uzjeYiiLcvQFBw-38" edge="1">
          <mxGeometry width="50" height="50" relative="1" as="geometry">
            <mxPoint x="1140" y="360" as="sourcePoint" />
            <mxPoint x="1190" y="310" as="targetPoint" />
          </mxGeometry>
        </mxCell>
        <mxCell id="7ZV2Q5uzjeYiiLcvQFBw-66" value="Sex" style="ellipse;whiteSpace=wrap;html=1;strokeColor=default;" parent="1" vertex="1">
          <mxGeometry x="700" y="480" width="80" height="40" as="geometry" />
        </mxCell>
        <mxCell id="7ZV2Q5uzjeYiiLcvQFBw-67" value="" style="endArrow=none;html=1;rounded=0;exitX=0.638;exitY=0.021;exitDx=0;exitDy=0;exitPerimeter=0;entryX=0.391;entryY=1.024;entryDx=0;entryDy=0;entryPerimeter=0;" parent="1" source="7ZV2Q5uzjeYiiLcvQFBw-66" target="7ZV2Q5uzjeYiiLcvQFBw-36" edge="1">
          <mxGeometry width="50" height="50" relative="1" as="geometry">
            <mxPoint x="780" y="480" as="sourcePoint" />
            <mxPoint x="830" y="430" as="targetPoint" />
          </mxGeometry>
        </mxCell>
        <mxCell id="7ZV2Q5uzjeYiiLcvQFBw-68" value="living address" style="ellipse;whiteSpace=wrap;html=1;strokeColor=default;" parent="1" vertex="1">
          <mxGeometry x="885" y="500" width="105" height="40" as="geometry" />
        </mxCell>
        <mxCell id="7ZV2Q5uzjeYiiLcvQFBw-69" value="" style="endArrow=none;html=1;rounded=0;entryX=0.876;entryY=1.024;entryDx=0;entryDy=0;entryPerimeter=0;exitX=0;exitY=0;exitDx=0;exitDy=0;" parent="1" source="7ZV2Q5uzjeYiiLcvQFBw-68" target="7ZV2Q5uzjeYiiLcvQFBw-36" edge="1">
          <mxGeometry width="50" height="50" relative="1" as="geometry">
            <mxPoint x="830" y="520" as="sourcePoint" />
            <mxPoint x="880" y="470" as="targetPoint" />
          </mxGeometry>
        </mxCell>
        <mxCell id="7ZV2Q5uzjeYiiLcvQFBw-70" value="SalaryType" style="rounded=0;whiteSpace=wrap;html=1;strokeColor=default;" parent="1" vertex="1">
          <mxGeometry x="720" y="774.5" width="120" height="60" as="geometry" />
        </mxCell>
        <mxCell id="7ZV2Q5uzjeYiiLcvQFBw-71" value="Type" style="ellipse;whiteSpace=wrap;html=1;strokeColor=default;" parent="1" vertex="1">
          <mxGeometry x="865" y="820" width="80" height="50" as="geometry" />
        </mxCell>
        <mxCell id="7ZV2Q5uzjeYiiLcvQFBw-72" value="" style="endArrow=none;html=1;rounded=0;entryX=1;entryY=0.75;entryDx=0;entryDy=0;exitX=0;exitY=0;exitDx=0;exitDy=0;" parent="1" source="7ZV2Q5uzjeYiiLcvQFBw-71" target="7ZV2Q5uzjeYiiLcvQFBw-70" edge="1">
          <mxGeometry width="50" height="50" relative="1" as="geometry">
            <mxPoint x="780" y="960" as="sourcePoint" />
            <mxPoint x="830" y="910" as="targetPoint" />
          </mxGeometry>
        </mxCell>
        <mxCell id="7ZV2Q5uzjeYiiLcvQFBw-75" value="" style="rhombus;whiteSpace=wrap;html=1;strokeColor=default;" parent="1" vertex="1">
          <mxGeometry x="467.5" y="517.25" width="20" height="20" as="geometry" />
        </mxCell>
        <mxCell id="7ZV2Q5uzjeYiiLcvQFBw-73" value="Money amount" style="ellipse;whiteSpace=wrap;html=1;strokeColor=default;" parent="1" vertex="1">
          <mxGeometry x="660" y="880" width="120" height="60" as="geometry" />
        </mxCell>
        <mxCell id="7ZV2Q5uzjeYiiLcvQFBw-74" value="" style="endArrow=none;html=1;rounded=0;entryX=0.25;entryY=1;entryDx=0;entryDy=0;exitX=0.5;exitY=0;exitDx=0;exitDy=0;" parent="1" source="7ZV2Q5uzjeYiiLcvQFBw-73" target="7ZV2Q5uzjeYiiLcvQFBw-70" edge="1">
          <mxGeometry width="50" height="50" relative="1" as="geometry">
            <mxPoint x="870" y="640" as="sourcePoint" />
            <mxPoint x="920" y="590" as="targetPoint" />
            <Array as="points" />
          </mxGeometry>
        </mxCell>
        <mxCell id="7ZV2Q5uzjeYiiLcvQFBw-76" value="" style="rhombus;whiteSpace=wrap;html=1;strokeColor=default;" parent="1" vertex="1">
          <mxGeometry x="480" y="365" width="20" height="20" as="geometry" />
        </mxCell>
        <mxCell id="7ZV2Q5uzjeYiiLcvQFBw-77" value="&lt;u&gt;ID&lt;/u&gt;" style="ellipse;whiteSpace=wrap;html=1;strokeColor=default;" parent="1" vertex="1">
          <mxGeometry x="620" y="745" width="80" height="40" as="geometry" />
        </mxCell>
        <mxCell id="7ZV2Q5uzjeYiiLcvQFBw-78" value="" style="endArrow=none;html=1;rounded=0;exitX=1;exitY=1;exitDx=0;exitDy=0;entryX=0.005;entryY=0.383;entryDx=0;entryDy=0;entryPerimeter=0;" parent="1" source="7ZV2Q5uzjeYiiLcvQFBw-77" target="7ZV2Q5uzjeYiiLcvQFBw-70" edge="1">
          <mxGeometry width="50" height="50" relative="1" as="geometry">
            <mxPoint x="680" y="700" as="sourcePoint" />
            <mxPoint x="730" y="650" as="targetPoint" />
          </mxGeometry>
        </mxCell>
        <mxCell id="7ZV2Q5uzjeYiiLcvQFBw-79" value="" style="rhombus;whiteSpace=wrap;html=1;strokeColor=default;" parent="1" vertex="1">
          <mxGeometry x="765" y="700" width="45" height="45" as="geometry" />
        </mxCell>
        <mxCell id="7ZV2Q5uzjeYiiLcvQFBw-80" value="" style="endArrow=none;html=1;rounded=0;entryX=0.603;entryY=1.026;entryDx=0;entryDy=0;entryPerimeter=0;exitX=0.5;exitY=0;exitDx=0;exitDy=0;" parent="1" source="DcO0H20_UbfmeNKd1eRJ-2" target="7ZV2Q5uzjeYiiLcvQFBw-36" edge="1">
          <mxGeometry width="50" height="50" relative="1" as="geometry">
            <mxPoint x="822" y="490" as="sourcePoint" />
            <mxPoint x="760" y="490" as="targetPoint" />
          </mxGeometry>
        </mxCell>
        <mxCell id="7ZV2Q5uzjeYiiLcvQFBw-81" value="" style="endArrow=none;html=1;rounded=0;exitX=0.5;exitY=0;exitDx=0;exitDy=0;entryX=0.5;entryY=1;entryDx=0;entryDy=0;" parent="1" source="7ZV2Q5uzjeYiiLcvQFBw-70" target="7ZV2Q5uzjeYiiLcvQFBw-79" edge="1">
          <mxGeometry width="50" height="50" relative="1" as="geometry">
            <mxPoint x="680" y="700" as="sourcePoint" />
            <mxPoint x="730" y="650" as="targetPoint" />
          </mxGeometry>
        </mxCell>
        <mxCell id="DcO0H20_UbfmeNKd1eRJ-2" value="" style="rhombus;whiteSpace=wrap;html=1;" vertex="1" parent="1">
          <mxGeometry x="790" y="500" width="50" height="50" as="geometry" />
        </mxCell>
        <mxCell id="DcO0H20_UbfmeNKd1eRJ-4" value="Salary" style="rounded=0;whiteSpace=wrap;html=1;" vertex="1" parent="1">
          <mxGeometry x="755" y="610" width="120" height="60" as="geometry" />
        </mxCell>
        <mxCell id="DcO0H20_UbfmeNKd1eRJ-5" value="&lt;u&gt;ID&lt;/u&gt;" style="ellipse;whiteSpace=wrap;html=1;" vertex="1" parent="1">
          <mxGeometry x="900" y="620" width="80" height="40" as="geometry" />
        </mxCell>
        <mxCell id="DcO0H20_UbfmeNKd1eRJ-6" value="" style="endArrow=none;html=1;rounded=0;entryX=0;entryY=0.5;entryDx=0;entryDy=0;exitX=1;exitY=0.5;exitDx=0;exitDy=0;" edge="1" parent="1" source="DcO0H20_UbfmeNKd1eRJ-4" target="DcO0H20_UbfmeNKd1eRJ-5">
          <mxGeometry width="50" height="50" relative="1" as="geometry">
            <mxPoint x="770" y="670" as="sourcePoint" />
            <mxPoint x="820" y="620" as="targetPoint" />
          </mxGeometry>
        </mxCell>
        <mxCell id="DcO0H20_UbfmeNKd1eRJ-7" value="" style="endArrow=none;html=1;rounded=0;exitX=0.5;exitY=0;exitDx=0;exitDy=0;entryX=0.5;entryY=1;entryDx=0;entryDy=0;" edge="1" parent="1" source="7ZV2Q5uzjeYiiLcvQFBw-79" target="DcO0H20_UbfmeNKd1eRJ-4">
          <mxGeometry width="50" height="50" relative="1" as="geometry">
            <mxPoint x="770" y="670" as="sourcePoint" />
            <mxPoint x="820" y="620" as="targetPoint" />
          </mxGeometry>
        </mxCell>
        <mxCell id="DcO0H20_UbfmeNKd1eRJ-8" value="" style="endArrow=none;html=1;rounded=0;entryX=0.5;entryY=1;entryDx=0;entryDy=0;exitX=0.5;exitY=0;exitDx=0;exitDy=0;" edge="1" parent="1" source="DcO0H20_UbfmeNKd1eRJ-4" target="DcO0H20_UbfmeNKd1eRJ-2">
          <mxGeometry width="50" height="50" relative="1" as="geometry">
            <mxPoint x="770" y="670" as="sourcePoint" />
            <mxPoint x="820" y="620" as="targetPoint" />
          </mxGeometry>
        </mxCell>
        <mxCell id="DcO0H20_UbfmeNKd1eRJ-9" value="Date" style="ellipse;whiteSpace=wrap;html=1;" vertex="1" parent="1">
          <mxGeometry x="650" y="650" width="80" height="40" as="geometry" />
        </mxCell>
        <mxCell id="DcO0H20_UbfmeNKd1eRJ-10" value="" style="endArrow=none;html=1;rounded=0;exitX=1;exitY=0.5;exitDx=0;exitDy=0;entryX=0;entryY=0.75;entryDx=0;entryDy=0;" edge="1" parent="1" source="DcO0H20_UbfmeNKd1eRJ-9" target="DcO0H20_UbfmeNKd1eRJ-4">
          <mxGeometry width="50" height="50" relative="1" as="geometry">
            <mxPoint x="770" y="670" as="sourcePoint" />
            <mxPoint x="820" y="620" as="targetPoint" />
          </mxGeometry>
        </mxCell>
        <mxCell id="DcO0H20_UbfmeNKd1eRJ-11" value="Amount" style="ellipse;whiteSpace=wrap;html=1;" vertex="1" parent="1">
          <mxGeometry x="655" y="570" width="70" height="40" as="geometry" />
        </mxCell>
        <mxCell id="DcO0H20_UbfmeNKd1eRJ-12" value="" style="endArrow=none;html=1;rounded=0;exitX=0;exitY=0.25;exitDx=0;exitDy=0;" edge="1" parent="1" source="DcO0H20_UbfmeNKd1eRJ-4" target="DcO0H20_UbfmeNKd1eRJ-11">
          <mxGeometry width="50" height="50" relative="1" as="geometry">
            <mxPoint x="770" y="670" as="sourcePoint" />
            <mxPoint x="820" y="620" as="targetPoint" />
          </mxGeometry>
        </mxCell>
      </root>
    </mxGraphModel>
  </diagram>
</mxfile>
